<svg id="Layer_1" data-name="Layer 1" xmlns="http://www.w3.org/2000/svg" viewBox="0 0 400 400"><defs><style>.cls-1{fill:orange;}</style></defs><title>archalley-logogram-ylw</title><path class="cls-1" d="M297.57,194.44a130.43,130.43,0,0,1-24,16.57l-40.83-110.5L232.17,99H172.23L133.46,203.38c-2.65-1.87-5-3.6-7.14-5.38a102,102,0,0,1-37.65-77.45l0-2.32H52l0,2.39A139,139,0,0,0,103.17,226.4a158.43,158.43,0,0,0,17.3,12L97.19,301h43.4l15.93-45.23a168,168,0,0,0,70.69,7.83A166.46,166.46,0,0,0,249,259.87L263.44,301h43.39L286.42,245.8a166.88,166.88,0,0,0,33.05-21.56l1.64-1.4-21.59-30.13ZM223.5,227.15h0a129.74,129.74,0,0,1-54.77-6l31.6-89.74h3.74l32.71,93.43A112.18,112.18,0,0,1,223.5,227.15Z"/></svg>